<?xml version="1.0" encoding="UTF-8"?>
<!DOCTYPE svg PUBLIC "-//W3C//DTD SVG 1.1//EN" "http://www.w3.org/Graphics/SVG/1.1/DTD/svg11.dtd">
<!-- Creator: CorelDRAW X8 -->
<svg xmlns="http://www.w3.org/2000/svg" xml:space="preserve" width="150mm" height="23mm" version="1.1" style="shape-rendering:geometricPrecision; text-rendering:geometricPrecision; image-rendering:optimizeQuality; fill-rule:evenodd; clip-rule:evenodd"
viewBox="0 0 15000 2300"
 xmlns:xlink="http://www.w3.org/1999/xlink">
 <defs>
  <style type="text/css">
   <![CDATA[
    .fil1 {fill:white;fill-rule:nonzero}
    .fil0 {fill:white;fill-rule:nonzero}
   ]]>
  </style>
 </defs>
 <g id="Слой_x0020_1">
  <metadata id="CorelCorpID_0Corel-Layer"/>
  <g id="_822106384">
   <path class="fil0" d="M2363 889c0,238 -227,357 -681,357l-1477 0 0 -238 1477 0c151,0 227,-40 227,-119 0,-79 -76,-119 -227,-119l-909 0c-454,0 -681,-119 -681,-357 0,-237 227,-356 681,-356l1476 0 0 237 -1476 0c-151,0 -227,40 -227,119 0,80 76,119 227,119l909 0c454,0 681,119 681,357zm2499 357l-455 0 -1363 -825 0 825 -454 0 0 -1189 454 0 1363 824 0 -824 455 0 0 1189zm2498 -357c0,238 -227,357 -681,357l-909 0c-454,0 -681,-119 -681,-357l0 -832 454 0 0 832c0,79 76,119 227,119l909 0c151,0 227,-40 227,-119l0 -832 454 0 0 832zm2499 357l-1590 0c-455,0 -682,-119 -682,-357l0 -476c0,-237 227,-356 682,-356l1590 0 0 237 -1590 0c-152,0 -227,40 -227,119l0 476c0,79 75,119 227,119l1135 0 0 -238 -454 0 0 -238 909 0 0 714zm2498 -833c0,238 -227,357 -681,357l-227 0 0 476 -455 0 0 -476 -227 0c-454,0 -681,-119 -681,-357l0 -356 454 0 0 356c0,80 76,119 227,119l909 0c151,0 227,-39 227,-119l0 -356 454 0 0 356z"/>
   <path class="fil0" d="M13657 152l-366 0 0 383 -182 0 0 -383 -365 0 0 -95 913 0 0 95zm1187 383l-183 0 0 -300 -365 300 -365 -300 0 300 -183 0 0 -478 183 0 365 299 365 -299 183 0 0 478z"/>
   <path class="fil1" d="M177 2163l281 0c80,0 120,-40 120,-120l0 -161c0,-80 -40,-120 -120,-120l-281 0 0 80 281 0c27,0 40,14 40,40l0 40 -160 0 0 81 160 0 0 40c0,27 -13,40 -40,40l-281 0 0 80zm908 0l-80 0 0 -160 -241 0 0 160 -80 0 0 -401 80 0 0 160 241 0 0 -160 80 0 0 401zm507 -321l-321 0 0 80 241 0 0 81 -241 0 0 80 321 0 0 80 -401 0 0 -401 401 0 0 80zm507 40l0 40c0,81 -40,121 -120,121l-201 0 0 120 -80 0 0 -401 281 0c80,0 120,40 120,120zm-80 0c0,-26 -13,-40 -40,-40l-201 0 0 121 201 0c27,0 40,-14 40,-41l0 -40zm507 -120l-321 0 0 401 80 0 0 -321 241 0 0 -80zm487 288c0,80 -40,120 -121,120l-160 0c-80,0 -120,-40 -120,-120l0 -174c0,-81 40,-121 120,-121l160 0c81,0 121,40 121,121l0 174zm-81 0l0 -174c0,-27 -13,-40 -40,-40l-160 0c-27,0 -40,13 -40,40l0 174c0,26 13,40 40,40l160 0c27,0 40,-14 40,-40zm588 113l-81 0 0 -160 -240 0 0 160 -80 0 0 -401 80 0 0 160 240 0 0 -160 81 0 0 401zm507 -321l-321 0 0 80 240 0 0 81 -240 0 0 80 321 0 0 80 -402 0 0 -401 402 0 0 80zm483 121c16,26 23,58 23,93 0,72 -40,107 -120,107l-281 0 0 -80 281 0c27,0 40,-13 40,-40 0,-27 -13,-40 -40,-40l-120 0 0 -81 120 0c27,0 40,-13 40,-40 0,-26 -13,-40 -40,-40l-281 0 0 -80 298 0c69,0 103,40 103,120 0,27 -7,54 -23,81zm530 200l-80 0 0 -80 -240 0 0 80 -81 0 0 -287c0,-81 40,-121 121,-121l160 0c80,0 120,40 120,121l0 287zm-80 -160l0 -127c0,-27 -13,-40 -40,-40l-160 0c-27,0 -40,13 -40,40l0 127 240 0zm562 -41c17,-17 25,-43 25,-80 0,-80 -40,-120 -120,-120l-281 0 0 401 281 0c80,0 120,-40 120,-120 0,-37 -8,-64 -25,-81zm-95 -40l-201 0 0 -80 201 0c27,0 40,14 40,40 0,27 -13,40 -40,40zm0 161l-201 0 0 -80 201 0c27,0 40,13 40,40 0,27 -13,40 -40,40zm627 -321l-80 0 -241 278 0 -278 -80 0 0 401 80 0 241 -278 0 278 80 0 0 -401zm507 401l-281 0c-80,0 -120,-40 -120,-120l0 -161c0,-80 40,-120 120,-120l281 0 0 80 -281 0c-26,0 -40,14 -40,40l0 161c0,27 14,40 40,40l281 0 0 80zm507 -401l-80 0 -241 278 0 -278 -80 0 0 401 80 0 241 -278 0 278 80 0 0 -401zm587 401l-80 0 0 -251 -160 251 -161 -251 0 251 -80 0 0 -401 80 0 161 251 160 -251 80 0 0 401zm507 -120l0 -40c0,-81 -40,-121 -120,-121l-201 0 0 -120 -80 0 0 401 281 0c80,0 120,-40 120,-120zm-80 0c0,27 -13,40 -40,40l-201 0 0 -120 201 0c27,0 40,13 40,40l0 40zm201 120l-81 0 0 -401 81 0 0 401zm506 -321l-320 0 0 80 240 0 0 81 -240 0 0 80 320 0 0 80 -401 0 0 -401 401 0 0 80zm481 241l42 0c10,0 23,-13 41,-40l50 -80 -173 -201 105 0 117 134 83 -134 96 0c-34,54 -75,119 -123,194 -17,28 -32,50 -42,66 -11,16 -19,28 -26,37 -6,8 -10,14 -12,17 -3,2 -4,4 -5,6 -32,54 -66,81 -102,81l-51 0 0 -80zm527 80l-81 0 0 -401 81 0 0 160 80 0 0 -46c0,-81 40,-121 120,-121l161 0c80,0 120,40 120,121l0 174c0,80 -40,120 -120,120l-161 0c-80,0 -120,-40 -120,-120l0 -47 -80 0 0 160zm401 -113l0 -174c0,-27 -14,-40 -40,-40l-161 0c-27,0 -40,13 -40,40l0 174c0,26 13,40 40,40l161 0c26,0 40,-14 40,-40zm587 -208l-161 0 0 321 -80 0 0 -321 -160 0 0 -80 401 0 0 80zm507 321l-80 0 0 -160 -241 0 0 160 -80 0 0 -401 80 0 0 160 241 0 0 -160 80 0 0 401zm507 -120l0 -40c0,-81 -40,-121 -121,-121l-200 0 0 -120 -80 0 0 401 280 0c81,0 121,-40 121,-120zm-80 0c0,27 -14,40 -41,40l-200 0 0 -120 200 0c27,0 41,13 41,40l0 40zm200 120l-80 0 0 -401 80 0 0 401zm507 -321l-321 0 0 80 241 0 0 81 -241 0 0 80 321 0 0 80 -401 0 0 -401 401 0 0 80zm841 241l40 0 0 160 -80 0 0 -80 -281 0 0 80 -80 0 0 -160 40 0 0 -207c0,-81 40,-121 121,-121l120 0c80,0 120,40 120,121l0 207zm-80 0l0 -207c0,-27 -13,-40 -40,-40l-120 0c-27,0 -41,13 -41,40l0 207 201 0zm627 -33c0,80 -40,120 -120,120l-160 0c-81,0 -121,-40 -121,-120l0 -174c0,-81 40,-121 121,-121l160 0c80,0 120,40 120,121l0 174zm-80 0l0 -174c0,-27 -13,-40 -40,-40l-160 0c-27,0 -41,13 -41,40l0 174c0,26 14,40 41,40l160 0c27,0 40,-14 40,-40zm667 113l-80 0 0 -251 -160 251 -161 -251 0 251 -80 0 0 -401 80 0 161 251 160 -251 80 0 0 401zm507 0l-80 0 0 -80 -241 0 0 80 -80 0 0 -287c0,-81 40,-121 121,-121l160 0c80,0 120,40 120,121l0 287zm-80 -160l0 -127c0,-27 -13,-40 -40,-40l-160 0c-27,0 -41,13 -41,40l0 127 241 0z"/>
  </g>
 </g>
</svg>
